#N canvas 0 25 1105 815 12;
#X obj 324 -2 bng 45 250 50 0 empty empty choose 5 23 0 8 -62784 -260818
-258699;
#X obj 67 65 tgl 45 0 empty empty record 2 23 0 8 -258699 -241291 -24198
0 1;
#X floatatom 553 780 15 0 0 0 tick - -;
#X obj 67 150 metro 2;
#X floatatom 120 125 15 0 0 0 - - -;
#X msg 120 99 2.005;
#X msg 506 590 verbose \$1;
#X text 525 544 verbosity defaults to 1;
#X obj 324 54 savepanel;
#X msg 409 493 240 1 2 3 4 247;
#X text 536 492 a sysex message;
#X obj 553 750 float;
#X floatatom 506 564 5 0 0 0 - - -;
#X msg 324 408 write \$1 \$2 \$3;
#X msg 350 199 29;
#X msg 388 199 30;
#X msg 235 199 0;
#X floatatom 405 275 5 0 0 0 ticks_per_frame - -;
#X text 80 301 (ticks per quarter note if frames per second is zero)
;
#X msg 312 199 25;
#X msg 272 199 24;
#X text 79 322 25 20 will give accurate timing with metro ticks at
2ms;
#X obj 324 375 pack s 25 20;
#X obj 559 663 midifile;
#X text 7 199 time code frames per second:;
#X text 509 432 default is 90 ticks per quarter note;
#X msg 349 433 write filename.mid;
#X msg 374 458 write filename.mid 77;
#X text 555 457 77 ticks per quarter note;
#X msg 442 526 flush;
#X obj 268 146 cnv 15 200 20 empty empty empty 20 12 0 14 -257985 -66577
0;
#X floatatom 514 145 5 0 0 0 note - -;
#X floatatom 514 175 5 0 0 0 velocity - -;
#X obj 558 333 pack 144 0 0;
#X obj 577 179 sel 0;
#X obj 558 206 t b f;
#X obj 558 307 f;
#X text 553 565 set to 3 to debug input;
#X obj 558 125 notein;
#X obj 102 8 cnv 15 220 20 empty empty empty 20 12 0 14 -257985 -66577
0;
#X text 104 10 1: open a file for writing:;
#X obj 116 64 cnv 15 150 20 empty empty empty 20 12 0 14 -257985 -66577
0;
#X text 118 67 2: start recording;
#X obj 142 524 cnv 15 300 20 empty empty empty 20 12 0 14 -257985 -66577
0;
#X text 150 526 4: stop recording and save the file:;
#X floatatom 512 230 5 0 0 0 channel - -;
#X obj 609 287 +;
#X msg 577 235 127;
#X msg 609 207 143;
#X floatatom 919 103 5 0 0 0 value - -;
#X floatatom 919 134 5 0 0 0 controller - -;
#X floatatom 917 183 5 0 0 0 channel - -;
#X obj 965 83 ctlin;
#X obj 965 237 pack 176 0 0;
#X obj 965 269 print ctl>;
#X obj 579 374 print note>;
#X obj 965 119 t b f;
#X obj 965 183 f;
#X obj 1020 126 + 175;
#X text 285 143 3: input MIDI as lists;
#X msg 778 551 track \$1;
#X msg 971 519 144 60 0;
#X msg 882 518 144 60 64;
#X msg 863 549 144 67 64;
#X msg 953 549 144 67 0;
#X obj 778 500 hradio 15 1 0 8 empty empty empty 0 -8 0 10 -262144
-1 -1 0;
#X obj 708 633 r midiwrite;
#N canvas 141 452 1100 497 meta_messages 0;
#X text 71 6 FF 51 3 tttttt Set Tempo (in microseconds per MIDI quarter-note)
;
#X obj 539 526 s midiwrite;
#X text 407 196 Instrument Name;
#X text 399 220 Lyric;
#X text 385 126 Text Event (should be at start of track);
#X text 224 102 Sequence Number (must be at start of track);
#X text 419 150 Copyright Notice;
#X text 398 173 Sequence/Track Name;
#X msg 372 339 meta 81 500000;
#X text 495 338 Set Tempo (microseconds per MIDI quarter-note);
#X msg 136 103 meta 0 678;
#X text 439 244 Marker;
#X text 463 268 Cue Point;
#X msg 326 293 meta 32 5;
#X text 405 292 MIDI Channel Prefix;
#X msg 349 316 meta 47;
#X text 414 315 End of Track;
#X text 6 42 raw mode;
#X text 44 104 meta method;
#X msg 74 41 255 81 3 500000;
#X text 544 361 SMPTE Offset (hr mi se fr ff);
#X msg 395 362 meta 84 0 1 30 4 5;
#X text 555 384 Time Signature;
#X msg 418 385 meta 88 6 3 36 8;
#X msg 441 408 meta 89 0 0;
#X text 538 407 Key Signature (number of sharps(+) / flats(-) 0 or
1 for major or minor;
#X msg 481 448 meta 127 0 1 22 33 44 55;
#X text 683 449 Sequencer-Specific Meta-Event;
#X msg 509 476 meta 52;
#X text 574 475 unknown;
#X msg 230 197 meta 4 twisted_guitar;
#X msg 278 245 meta 6 another_part;
#X msg 302 269 meta 7 "drops_ball";
#X msg 160 127 meta 1 Some_text_goes_here.;
#X msg 184 151 meta 2 (C)2018_Nobody_At_All;
#X msg 207 174 meta 3 amazing_sequence;
#X msg 254 221 meta 5 "what_the";
#X text 575 143 Underscore will be replaced by space in text metas
;
#X connect 8 0 1 0;
#X connect 10 0 1 0;
#X connect 13 0 1 0;
#X connect 15 0 1 0;
#X connect 19 0 1 0;
#X connect 21 0 1 0;
#X connect 23 0 1 0;
#X connect 24 0 1 0;
#X connect 26 0 1 0;
#X connect 28 0 1 0;
#X connect 30 0 1 0;
#X connect 31 0 1 0;
#X connect 32 0 1 0;
#X connect 33 0 1 0;
#X connect 34 0 1 0;
#X connect 35 0 1 0;
#X connect 36 0 1 0;
#X restore 561 87 pd meta_messages;
#X obj 506 532 hradio 15 1 0 5 empty empty verbosity 0 -6 0 12 -62784
-241291 -1 4;
#X obj 174 86 cnv 15 380 20 empty empty empty 20 12 0 14 -257985 -66577
0;
#X text 180 86 Maybe add some meta messages before we start:;
#X text 780 478 choose track to write;
#X text 753 744 Martin Peach \, 2010 - 2018;
#X connect 0 0 8 0;
#X connect 1 0 3 0;
#X connect 3 0 23 0;
#X connect 4 0 3 1;
#X connect 5 0 4 0;
#X connect 6 0 23 0;
#X connect 8 0 22 0;
#X connect 9 0 23 0;
#X connect 11 0 2 0;
#X connect 12 0 6 0;
#X connect 13 0 23 0;
#X connect 14 0 22 1;
#X connect 15 0 22 1;
#X connect 16 0 22 1;
#X connect 17 0 22 2;
#X connect 19 0 22 1;
#X connect 20 0 22 1;
#X connect 22 0 13 0;
#X connect 23 1 11 1;
#X connect 23 2 11 0;
#X connect 26 0 23 0;
#X connect 27 0 23 0;
#X connect 29 0 23 0;
#X connect 33 0 23 0;
#X connect 33 0 55 0;
#X connect 34 0 47 0;
#X connect 34 1 48 0;
#X connect 35 0 36 0;
#X connect 35 1 33 1;
#X connect 36 0 33 0;
#X connect 38 0 31 0;
#X connect 38 0 35 0;
#X connect 38 1 32 0;
#X connect 38 1 34 0;
#X connect 38 1 33 2;
#X connect 38 2 45 0;
#X connect 38 2 46 1;
#X connect 46 0 36 1;
#X connect 47 0 46 0;
#X connect 48 0 46 0;
#X connect 52 0 49 0;
#X connect 52 0 56 0;
#X connect 52 1 50 0;
#X connect 52 1 53 1;
#X connect 52 2 51 0;
#X connect 52 2 58 0;
#X connect 53 0 54 0;
#X connect 53 0 23 0;
#X connect 56 0 57 0;
#X connect 56 1 53 2;
#X connect 57 0 53 0;
#X connect 58 0 57 1;
#X connect 60 0 23 0;
#X connect 61 0 23 0;
#X connect 62 0 23 0;
#X connect 63 0 23 0;
#X connect 64 0 23 0;
#X connect 65 0 60 0;
#X connect 66 0 23 0;
#X connect 68 0 12 0;
