#N canvas 737 25 1055 717 10;
#X obj 198 346 abl_link~ 1 0 4 120;
#X msg 728 384 \; toGUI list /syncPlayToggle set \$1;
#X msg 373 263 tempo \$1;
#X msg 145 197 resolution \$1;
#X msg 212 293 reset \$1 \$2;
#X obj 212 272 pack f f;
#X floatatom 272 422 5 0 0 1 beat_time - -;
#X floatatom 178 376 5 0 0 1 phase - -;
#X floatatom 83 458 5 0 0 1 step - -;
#X floatatom 309 371 5 0 0 1 tempo - -;
#X floatatom 373 244 5 0 0 2 tempo - -;
#X floatatom 293 251 5 0 0 2 quantum - -;
#X floatatom 212 253 5 0 0 2 beat - -;
#X floatatom 145 177 5 0 0 2 resolution - -;
#X floatatom 280 467 5 0 0 0 - - -;
#X obj 280 445 r #abl_link_num_peers;
#X obj 85 30 r fromGUI;
#X obj 85 51 route list;
#X obj 120 623 s toGUI;
#X msg 166 550 list /beatLabel beat-time: \$1;
#X msg 280 487 list /peersLabel peers: \$1;
#X msg 512 437 list /tempo set \$1;
#X obj 314 135 * 236;
#X obj 314 156 i;
#X obj 314 197 + 20;
#X obj 314 177 change;
#X obj 512 386 - 20;
#X obj 512 407 / 236;
#X msg 514 467 list /bpmLabel bpm: \$1;
#X msg 46 139 list /resolutionLabel resolution: \$1;
#X obj 83 480 + 1;
#X msg 83 500 list /stepLabel count: \$1;
#X obj 248 171 t b f;
#X obj 294 221 + 1;
#N canvas 0 23 450 300 resolution 0;
#X obj 118 67 inlet;
#X msg 118 111 symbol Halfs;
#X msg 128 131 symbol Quarters;
#X msg 141 152 symbol Eighths;
#X obj 118 249 outlet;
#X obj 333 211 outlet;
#X obj 333 118 moses 1;
#X msg 333 139 0.5;
#X msg 151 172 symbol Eighttriplets;
#X msg 161 192 symbol Sixteenths;
#X msg 171 212 symbol Quintuplet;
#X msg 181 232 symbol Sixteentriplets;
#X obj 118 88 sel 0 1 2 3 4 5 6;
#X connect 0 0 6 0;
#X connect 0 0 12 0;
#X connect 1 0 4 0;
#X connect 2 0 4 0;
#X connect 3 0 4 0;
#X connect 6 0 7 0;
#X connect 6 1 5 0;
#X connect 7 0 5 0;
#X connect 8 0 4 0;
#X connect 9 0 4 0;
#X connect 10 0 4 0;
#X connect 11 0 4 0;
#X connect 12 0 1 0;
#X connect 12 1 2 0;
#X connect 12 2 3 0;
#X connect 12 3 8 0;
#X connect 12 4 9 0;
#X connect 12 5 10 0;
#X connect 12 6 11 0;
#X restore 81 118 pd resolution;
#X obj 272 376 i;
#X obj 272 403 change;
#X msg 357 155 0;
#X obj 357 133 sel 1;
#X msg 326 325 list /quantumLabel quantum: \$1;
#X obj 178 395 /;
#X obj 178 436 i;
#X obj 178 457 change;
#X msg 120 524 list /phaseSlider set \$1;
#X obj 178 415 * 20;
#X obj 178 478 / 20;
#X obj 486 84 loadbang;
#X msg 456 100 1 \; toGUI list /resolution set 1;
#X msg 486 149 3 \; toGUI list /quantum set 3;
#X obj 829 179 loadbang;
#X msg 829 199 \; pd-MMPExamples-Link.pd connect 0 4 1 0;
#X obj 85 72 route /resolution /beat /quantum /tempo /reset /syncPlayToggle
;
#X msg 462 232 play \$1;
#X connect 0 0 8 0;
#X connect 0 1 7 0;
#X connect 0 2 35 0;
#X connect 0 3 9 0;
#X connect 5 0 4 0;
#X connect 6 0 19 0;
#X connect 7 0 40 0;
#X connect 8 0 30 0;
#X connect 9 0 28 0;
#X connect 9 0 26 0;
#X connect 10 0 2 0;
#X connect 11 0 5 1;
#X connect 11 0 39 0;
#X connect 11 0 40 1;
#X connect 12 0 5 0;
#X connect 13 0 3 0;
#X connect 14 0 20 0;
#X connect 15 0 14 0;
#X connect 16 0 17 0;
#X connect 17 0 51 0;
#X connect 19 0 18 0;
#X connect 20 0 18 0;
#X connect 21 0 18 0;
#X connect 22 0 23 0;
#X connect 23 0 25 0;
#X connect 24 0 10 0;
#X connect 25 0 24 0;
#X connect 26 0 27 0;
#X connect 27 0 21 0;
#X connect 28 0 18 0;
#X connect 29 0 18 0;
#X connect 30 0 31 0;
#X connect 31 0 18 0;
#X connect 32 0 12 0;
#X connect 32 1 33 0;
#X connect 33 0 11 0;
#X connect 34 0 29 0;
#X connect 34 1 13 0;
#X connect 35 0 36 0;
#X connect 36 0 6 0;
#X connect 37 0 12 0;
#X connect 38 0 37 0;
#X connect 39 0 18 0;
#X connect 40 0 44 0;
#X connect 41 0 42 0;
#X connect 42 0 45 0;
#X connect 43 0 18 0;
#X connect 44 0 41 0;
#X connect 45 0 43 0;
#X connect 46 0 48 0;
#X connect 46 0 47 0;
#X connect 47 0 34 0;
#X connect 48 0 32 0;
#X connect 49 0 50 0;
#X connect 51 0 34 0;
#X connect 51 1 12 0;
#X connect 51 2 32 0;
#X connect 51 3 22 0;
#X connect 51 4 38 0;
#X connect 51 5 52 0;
#X connect 52 0 0 0;
